<svg xmlns="http://www.w3.org/2000/svg" xmlns:xlink="http://www.w3.org/1999/xlink" version="1.1" x="0px" y="0px" viewBox="0 0 100 125" enable-background="new 0 0 100 100" xml:space="preserve"><g><path d="M59.314,46.133c1.194-0.042,2.35-0.521,3.467-1.279l1.919-2.721l3.123-4.431l4.669-6.621l3.89-6.352l0.229-0.324   c1.059-1.656,2.475-4.822-0.032-6.052c-2.078-0.878-3.659-1.354-5.165,0.224L54.445,42.643   C54.921,44.439,57.508,46.196,59.314,46.133z"/><path d="M65.402,48.298c-0.067,0.213-0.139,0.428-0.176,0.62c-0.546,2.855,3.411,3.787,5.18,3.453   c3.057-0.578,5.688-3.211,7.966-6.007c1.636-2.008,7.276-9.48,5.131-13.908c-1.201-2.475-4.104-3.407-5.583-1.908L65.402,48.298z"/><path d="M51.62,2.406c-6.368-1.156-9.353,6.535-12.181,11.14l9.622,4.364C52.363,13.267,60.051,5.261,51.62,2.406z"/><path d="M52.918,19.532c0.828,0.415,1.42,0.731,1.973,1.023l1.579,0.716l2.168,0.982l-0.635,1.581   C55.919,29,51.382,34.765,44.764,32.817c-1.011,3.183,1.906,3.35,3.989,4.267c1.583,0.333,2.833,1.833,5.583-1.5l1.986-2.545   c0.148-0.222,0.3-0.449,0.449-0.673c-0.149,0.224-0.301,0.451-0.448,0.672l4.651-6.596c0.006-0.007,0.012-0.015,0.018-0.023   l5.89-8.353c0.774-1.324,1.405-2.188,1.871-3.481c1.375-2.291,1.25-4.834-1.834-6.417c-2-1-4.75-1.333-6.552,0.801l-6.588,9.343   L52.918,19.532z"/><path d="M69.419,55.583c-4.407-0.35-6.834-0.903-7.031-6.115c-2.069,0.282-6.743,0.775-8.485-2.808   c0.5,2.635,2.515,17.629-0.055,17.775c-3.203-0.096-2.822-9.008-2.863-11.043c-0.19-9.753-3.773-15.326-13.967-18.263   c1.087-1.641,1.288-2.043,4.315-5.905c5.467,2.3,10.123-0.207,12.424-4.794l-2.137-0.969l-4.938-2.238l-7.378-3.347l-4.229-1.919   c-0.494-0.09-0.996-0.173-1.511-0.248c-2.183-0.313-9.145,10.419-10.894,12.955c-2.784,4.038-6.135,9.714-6.369,12.644   c-0.408,5.119,5.031,10.855,7.769,15.537c2.741,4.688,7.334,10.447,8.2,15.104c1.559,8.389,0.727,14.895,0.052,24.713H65.95   c-0.654-6.512-1.416-14.537,0.118-18.924c1.324-3.787,3.102-5.488,7.352-7.821c2.833-1.417,4.354-5.507,5.318-9.188   c1.09-4.144,1.098-4.396,2.27-11.687C78.017,52.331,74.763,56.007,69.419,55.583z"/></g><text x="0" y="115" fill="#000000" font-size="5px" font-weight="bold" font-family="'Helvetica Neue', Helvetica, Arial-Unicode, Arial, Sans-serif">Created by corpus delicti</text><text x="0" y="120" fill="#000000" font-size="5px" font-weight="bold" font-family="'Helvetica Neue', Helvetica, Arial-Unicode, Arial, Sans-serif">from the Noun Project</text></svg>