<svg xmlns="http://www.w3.org/2000/svg" viewBox="0 0 24 24" height="48" width="48"><defs></defs><path d="M7.4,5.682V3.307a1.534,1.534,0,1,1,3.068,0V5.773" fill="none" stroke="#000000" stroke-linecap="round" stroke-linejoin="round"></path><path d="M13.534,4.33V3.307a1.534,1.534,0,0,1,3.068,0V4.33" fill="none" stroke="#000000" stroke-linecap="round" stroke-linejoin="round"></path><path d="M13.534,3.307V2.284h0a1.534,1.534,0,0,0-3.068,0h0V3.307" fill="none" stroke="#000000" stroke-linecap="round" stroke-linejoin="round"></path><path d="M16.6,4.841V5.864a1.534,1.534,0,0,1-3.068,0V3.818" fill="none" stroke="#000000" stroke-linecap="round" stroke-linejoin="round"></path><path d="M19.67,4.7v.876a1.436,1.436,0,0,1-1.534,1.315A1.437,1.437,0,0,1,16.6,5.571V3.818" fill="none" stroke="#000000" stroke-linecap="round" stroke-linejoin="round"></path><path d="M11.157,8.168a1.534,1.534,0,0,0,2.377-1.282h0V5.864" fill="none" stroke="#000000" stroke-linecap="round" stroke-linejoin="round"></path><path d="M8.42,14.557A6.059,6.059,0,0,1,4.33,8.75h0A3.067,3.067,0,0,1,7.4,5.682H9.954a1.534,1.534,0,0,1,1.535,1.534h0A1.534,1.534,0,0,1,9.954,8.75H8.42" fill="none" stroke="#000000" stroke-linecap="round" stroke-linejoin="round"></path><path d="M16.6,5.864V4.33a1.534,1.534,0,1,1,3.068,0V9.955a5.868,5.868,0,0,1-2.556,4.6" fill="none" stroke="#000000" stroke-linecap="round" stroke-linejoin="round"></path><line x1="8.42" y1="17.605" x2="8.42" y2="14.557" fill="none" stroke="#000000" stroke-linecap="round" stroke-linejoin="round"></line><line x1="17.114" y1="14.557" x2="17.114" y2="17.605" fill="none" stroke="#000000" stroke-linecap="round" stroke-linejoin="round"></line><line x1="17.114" y1="21.184" x2="17.114" y2="23.25" fill="none" stroke="#000000" stroke-linecap="round" stroke-linejoin="round"></line><line x1="8.42" y1="23.25" x2="8.42" y2="21.184" fill="none" stroke="#000000" stroke-linecap="round" stroke-linejoin="round"></line><rect x="6.088" y="17.605" width="13.29" height="3.58" rx="1.449" fill="none" stroke="#000000" stroke-linecap="round" stroke-linejoin="round"></rect><line x1="9.435" y1="17.645" x2="9.435" y2="21.184" fill="none" stroke="#000000" stroke-linecap="round" stroke-linejoin="round"></line><line x1="16.112" y1="17.605" x2="16.112" y2="21.184" fill="none" stroke="#000000" stroke-linecap="round" stroke-linejoin="round"></line><line x1="12.733" y1="17.605" x2="12.733" y2="21.184" fill="none" stroke="#000000" stroke-linecap="round" stroke-linejoin="round"></line><path d="M9.708,8.762a3.324,3.324,0,0,1,3.324,3.324" fill="none" stroke="#000000" stroke-linecap="round" stroke-linejoin="round"></path></svg>